<svg width="512" height="512" viewBox="0 0 512 512" fill="none"
    xmlns="http://www.w3.org/2000/svg">
    <rect width="512" height="512" rx="120" fill="url(#paint0_linear)"/>

    <path d="M256 130C265.9 130 274 121.9 274 112C274 102.1 265.9 94 256 94C246.1 94 238 102.1 238 112C238 121.9 246.1 130 256 130Z" fill="white"/>
    <path d="M256 148C176.5 148 108.8 198.7 82 270H430C403.2 198.7 335.5 148 256 148Z" fill="white"/>
    <path d="M70 306V324C70 343.9 86.1 360 106 360H406C425.9 360 442 343.9 442 324V306H70Z" fill="white"/>

    <defs>
        <linearGradient id="paint0_linear" x1="0" y1="0" x2="512" y2="512" gradientUnits="userSpaceOnUse">
            <stop stop-color="#4F46E5"/>
            <stop offset="1" stop-color="#9333EA"/>
        </linearGradient>
    </defs>
</svg>